<svg width="14" height="14" viewBox="0 0 14 14" fill="none" xmlns="http://www.w3.org/2000/svg">
<path fill-rule="evenodd" clip-rule="evenodd" d="M13.6667 5.66668C13.6667 8.6122 11.2789 11 8.33333 11C5.38781 11 3 8.6122 3 5.66668C3 2.72116 5.38781 0.333344 8.33333 0.333344C11.2789 0.333344 13.6667 2.72116 13.6667 5.66668ZM4.33333 5.66668C4.33333 7.87582 6.12419 9.66668 8.33333 9.66668C10.5425 9.66668 12.3333 7.87582 12.3333 5.66668C12.3333 3.45754 10.5425 1.66668 8.33333 1.66668C6.12419 1.66668 4.33333 3.45754 4.33333 5.66668Z" fill="#DCD8D8"/>
<path d="M2.86193 10.1953L0.528596 12.5286C0.268246 12.7889 0.268246 13.2111 0.528596 13.4714C0.788945 13.7318 1.21106 13.7318 1.4714 13.4714L3.80474 11.1381C4.06509 10.8777 4.06509 10.4556 3.80474 10.1953C3.54439 9.93491 3.12228 9.93491 2.86193 10.1953Z" fill="#F0F0F0"/>
<circle cx="8.33333" cy="5.66667" r="0.666667" fill="#F0F0F0"/>
</svg>
